<svg width="1078" height="1080" viewBox="0 0 1078 1080" fill="none" xmlns="http://www.w3.org/2000/svg">
<path d="M882.133 -2.0972L882.133 430.903L569.633 -2.09718L882.133 -2.0972Z" fill="#3AAF9F"/>
<path d="M1.13299 1077.9L1.13298 157.403L637.633 1077.9L1.13299 1077.9Z" fill="#3AB790"/>
<path d="M337.633 -2.09718H569.633L882.133 427.403V720.403L337.633 -2.09718Z" fill="#3AB19B"/>
<path d="M118.133 -2.09718H350.133L882.133 720.403V1076.4L118.133 -2.09718Z" fill="#3AB397"/>
<path d="M-109.867 -2.09718H122.133L887.133 1077.4H636.133L-109.867 -2.09718Z" fill="#38B593"/>
<circle cx="1.1329" cy="1056.9" r="328" fill="#4CBF97"/>
<rect x="676.133" y="814.494" width="53" height="83" transform="rotate(-36.5888 676.133 814.494)" fill="#4DBBA1"/>
<path d="M882.133 454.403L882.133 600.903L784.133 637.403L882.133 454.403Z" fill="#4DB9A5"/>
<path d="M626.133 152.903L676.133 202.903L626.133 252.903L576.133 202.903L626.133 152.903Z" fill="#4DB9A5"/>
</svg>
